<svg width="102" height="32" viewBox="0 0 102 32" fill="none" xmlns="http://www.w3.org/2000/svg">
<rect x="3.05176e-05" width="102" height="32" rx="4" fill="#C7C7C7"/>
<path d="M20.4996 10.7478V21.3278C20.4996 23.4178 18.9696 25.2778 16.8896 25.4778C16.334 25.5333 15.7729 25.4717 15.2425 25.2968C14.7122 25.122 14.2244 24.8379 13.8107 24.4628C13.397 24.0878 13.0665 23.6301 12.8407 23.1194C12.6149 22.6086 12.4987 22.0562 12.4996 21.4978V9.1378C12.4996 7.8278 13.4396 6.6378 14.7396 6.5078C15.0883 6.47134 15.4407 6.50861 15.774 6.61718C16.1073 6.72576 16.414 6.90321 16.6743 7.13802C16.9346 7.37282 17.1425 7.65974 17.2847 7.98014C17.4269 8.30054 17.5001 8.64726 17.4996 8.9978V19.4978C17.4996 20.0478 17.0496 20.4978 16.4996 20.4978C15.9496 20.4978 15.4996 20.0478 15.4996 19.4978V10.7478C15.4996 10.3378 15.1596 9.9978 14.7496 9.9978C14.3396 9.9978 13.9996 10.3378 13.9996 10.7478V19.3578C13.9996 20.6678 14.9396 21.8578 16.2396 21.9878C16.5883 22.0243 16.9407 21.987 17.274 21.8784C17.6073 21.7698 17.914 21.5924 18.1743 21.3576C18.4346 21.1228 18.6425 20.8359 18.7847 20.5155C18.9269 20.1951 19.0001 19.8483 18.9996 19.4978V9.1678C18.9996 7.0778 17.4696 5.2178 15.3896 5.0178C14.8341 4.96307 14.2733 5.02527 13.7433 5.20039C13.2133 5.37551 12.7259 5.65968 12.3123 6.03459C11.8988 6.40951 11.5683 6.86687 11.3423 7.37722C11.1162 7.88757 10.9995 8.43961 10.9996 8.9978V21.2678C10.9996 24.1378 13.0996 26.7078 15.9596 26.9778C19.2496 27.2778 21.9996 24.7178 21.9996 21.4978V10.7478C21.9996 10.3378 21.6596 9.9978 21.2496 9.9978C20.8396 9.9978 20.4996 10.3378 20.4996 10.7478Z" fill="#333333"/>
<path d="M37.386 19.802H31.857L30.907 22.5H28.646L33.377 9.276H35.885L40.616 22.5H38.336L37.386 19.802ZM36.778 18.035L34.631 11.898L32.465 18.035H36.778ZM45.2001 13.798V19.593C45.2001 19.9857 45.2887 20.2707 45.4661 20.448C45.6561 20.6127 45.9727 20.695 46.4161 20.695H47.7461V22.5H46.0361C45.0607 22.5 44.3134 22.272 43.7941 21.816C43.2747 21.36 43.0151 20.619 43.0151 19.593V13.798H41.7801V12.031H43.0151V9.428H45.2001V12.031H47.7461V13.798H45.2001ZM52.2694 13.798V19.593C52.2694 19.9857 52.3581 20.2707 52.5354 20.448C52.7254 20.6127 53.0421 20.695 53.4854 20.695H54.8154V22.5H53.1054C52.1301 22.5 51.3827 22.272 50.8634 21.816C50.3441 21.36 50.0844 20.619 50.0844 19.593V13.798H48.8494V12.031H50.0844V9.428H52.2694V12.031H54.8154V13.798H52.2694ZM56.0897 17.218C56.0897 16.1667 56.3051 15.2357 56.7357 14.425C57.1791 13.6143 57.7744 12.9873 58.5217 12.544C59.2817 12.088 60.1177 11.86 61.0297 11.86C61.8531 11.86 62.5687 12.0247 63.1767 12.354C63.7974 12.6707 64.2914 13.0697 64.6587 13.551V12.031H66.8438V22.5H64.6587V20.942C64.2914 21.436 63.7911 21.8477 63.1577 22.177C62.5244 22.5063 61.8024 22.671 60.9917 22.671C60.0924 22.671 59.2691 22.443 58.5217 21.987C57.7744 21.5183 57.1791 20.8723 56.7357 20.049C56.3051 19.213 56.0897 18.2693 56.0897 17.218ZM64.6587 17.256C64.6587 16.534 64.5067 15.907 64.2027 15.375C63.9114 14.843 63.5251 14.4377 63.0437 14.159C62.5624 13.8803 62.0431 13.741 61.4857 13.741C60.9284 13.741 60.4091 13.8803 59.9277 14.159C59.4464 14.425 59.0537 14.824 58.7497 15.356C58.4584 15.8753 58.3127 16.496 58.3127 17.218C58.3127 17.94 58.4584 18.5733 58.7497 19.118C59.0537 19.6627 59.4464 20.0807 59.9277 20.372C60.4217 20.6507 60.9411 20.79 61.4857 20.79C62.0431 20.79 62.5624 20.6507 63.0437 20.372C63.5251 20.0933 63.9114 19.688 64.2027 19.156C64.5067 18.6113 64.6587 17.978 64.6587 17.256ZM68.9667 17.256C68.9667 16.1793 69.182 15.2357 69.6127 14.425C70.056 13.6017 70.664 12.9683 71.4367 12.525C72.2094 12.0817 73.096 11.86 74.0967 11.86C75.3634 11.86 76.4084 12.164 77.2317 12.772C78.0677 13.3673 78.6314 14.2223 78.9227 15.337H76.5857C76.3957 14.8177 76.0917 14.4123 75.6737 14.121C75.2557 13.8297 74.73 13.684 74.0967 13.684C73.21 13.684 72.5007 14.0007 71.9687 14.634C71.4494 15.2547 71.1897 16.1287 71.1897 17.256C71.1897 18.3833 71.4494 19.2637 71.9687 19.897C72.5007 20.5303 73.21 20.847 74.0967 20.847C75.3507 20.847 76.1804 20.296 76.5857 19.194H78.9227C78.6187 20.258 78.0487 21.1067 77.2127 21.74C76.3767 22.3607 75.338 22.671 74.0967 22.671C73.096 22.671 72.2094 22.4493 71.4367 22.006C70.664 21.55 70.056 20.9167 69.6127 20.106C69.182 19.2827 68.9667 18.3327 68.9667 17.256ZM86.4963 11.86C87.2943 11.86 88.0036 12.031 88.6243 12.373C89.2576 12.715 89.7516 13.2217 90.1063 13.893C90.4736 14.5643 90.6573 15.375 90.6573 16.325V22.5H88.5103V16.648C88.5103 15.7107 88.2759 14.995 87.8073 14.501C87.3386 13.9943 86.6989 13.741 85.8883 13.741C85.0776 13.741 84.4316 13.9943 83.9503 14.501C83.4816 14.995 83.2473 15.7107 83.2473 16.648V22.5H81.0813V8.44H83.2473V13.247C83.6146 12.8037 84.0769 12.4617 84.6343 12.221C85.2043 11.9803 85.8249 11.86 86.4963 11.86Z" fill="#333333"/>
</svg>
